<?xml version="1.0" encoding="iso-8859-1"?>
<!-- Generator: Adobe Illustrator 19.2.0, SVG Export Plug-In . SVG Version: 6.00 Build 0)  -->
<svg version="1.1"  xmlns="http://www.w3.org/2000/svg" xmlns:xlink="http://www.w3.org/1999/xlink" x="0px" y="0px"
	 viewBox="0 0 48 48" style="enable-background:new 0 0 48 48;" xml:space="preserve">
<polyline style="fill:none;stroke:#90CAF9;stroke-width:2;stroke-miterlimit:10;" points="14,12 14,43 29,43 "/>
<line style="fill:none;stroke:#90CAF9;stroke-width:2;stroke-miterlimit:10;" x1="29" y1="32" x2="14" y2="32"/>
<line style="fill:none;stroke:#90CAF9;stroke-width:2;stroke-miterlimit:10;" x1="29" y1="21" x2="14" y2="21"/>
<rect x="25" y="17" style="fill:#8BEAF2;" width="8" height="8"/>
<rect x="25" y="28" style="fill:#8BEAF2;" width="8" height="8"/>
<polygon style="fill:#8BEAF2;" points="33,39 25,47 25,39 "/>
<rect x="9" y="3" style="fill:#8BEAF2;" width="10" height="10"/>
<g>
	<path style="fill:#E57373;" d="M45.678,29.141l-2.82-2.818c-0.429-0.43-1.126-0.43-1.555,0l-1.328,1.328l4.376,4.375l1.327-1.328
		C46.107,30.268,46.107,29.572,45.678,29.141"/>
	
		<rect x="25.109" y="35.09" transform="matrix(0.7071 -0.7071 0.7071 0.7071 -17.0952 35.0961)" style="fill:#FF9800;" width="17.417" height="6.188"/>
	
		<rect x="39.521" y="27.837" transform="matrix(0.7071 -0.7071 0.7071 0.7071 -9.8429 38.0993)" style="fill:#B0BEC5;" width="3.094" height="6.189"/>
	<polygon style="fill:#FFC107;" points="25.473,42.152 24,48 29.848,46.527 	"/>
	<polygon style="fill:#37474F;" points="24.744,45.042 24,48 26.956,47.256 	"/>
</g>
</svg>
